<svg width="243.240692" height="153.000000" viewBox="0 0 243.241 153" fill="none" xmlns="http://www.w3.org/2000/svg" xmlns:xlink="http://www.w3.org/1999/xlink">
	<desc>
			Created with Pixso.
	</desc>
	<defs>
		<radialGradient gradientTransform="translate(121.241 46) rotate(0) scale(35 35)" cx="0.000000" cy="0.000000" r="1.000000" id="paint_radial_2_23_0" gradientUnits="userSpaceOnUse">
			<stop stop-color="#FFFFFF" stop-opacity="0.298039"/>
			<stop offset="1.000000" stop-color="#4A90B8" stop-opacity="0.000000"/>
		</radialGradient>
	</defs>
	<g opacity="0.800000">
		<circle id="circle" cx="121.240700" cy="46.000000" r="45.000000" fill="#000000" fill-opacity="0"/>
		<circle id="circle" cx="121.240700" cy="46.000000" r="45.000000" stroke="#4A90B8" stroke-opacity="1.000000" stroke-width="2.000000"/>
	</g>
	<circle id="circle" cx="121.240700" cy="46.000000" r="35.000000" fill="url(#paint_radial_2_23_0)" fill-opacity="1.000000"/>
	<circle id="circle" cx="121.240700" cy="31.000000" r="9.000000" fill="#D4A574" fill-opacity="1.000000"/>
	<circle id="circle" cx="105.240700" cy="59.000000" r="9.000000" fill="#D4A574" fill-opacity="1.000000"/>
	<circle id="circle" cx="137.240692" cy="59.000000" r="9.000000" fill="#D4A574" fill-opacity="1.000000"/>
	<path id="N" d="M119.49 36L118.44 36L118.44 27.19L119.59 27.19L122.79 32.74L123.73 34.55L123.79 34.55C123.73 33.67 123.64 32.68 123.64 31.77L123.64 27.19L124.7 27.19L124.7 36L123.56 36L120.36 30.44L119.41 28.63L119.36 28.63C119.41 29.51 119.49 30.45 119.49 31.37L119.49 36Z" fill="#FFFFFF" fill-opacity="1.000000" fill-rule="evenodd"/>
	<path id="H" d="M103.55 64L102.44 64L102.44 55.19L103.55 55.19L103.55 58.88L107.66 58.88L107.66 55.19L108.76 55.19L108.76 64L107.66 64L107.66 59.84L103.55 59.84L103.55 64Z" fill="#FFFFFF" fill-opacity="1.000000" fill-rule="evenodd"/>
	<path id="H" d="M135.55 64L134.44 64L134.44 55.19L135.55 55.19L135.55 58.88L139.66 58.88L139.66 55.19L140.76 55.19L140.76 64L139.66 64L139.66 59.84L135.55 59.84L135.55 64Z" fill="#FFFFFF" fill-opacity="1.000000" fill-rule="evenodd"/>
	<line id="line" x1="121.240700" y1="39.000000" x2="110.240700" y2="53.000000" stroke="#D4A574" stroke-opacity="1.000000" stroke-width="1.000000"/>
	<line id="line" x1="121.240700" y1="39.000000" x2="132.240692" y2="53.000000" stroke="#D4A574" stroke-opacity="1.000000" stroke-width="1.000000"/>
	<path id="氨氣" d="M126.93 100.02C126.11 101.2 125.2 102.24 124.23 103.1L138.06 103.1C137.99 109.23 138.04 113.34 138.92 113.34C139.17 113.34 139.28 112.08 139.3 110.4C139.72 110.95 140.27 111.59 140.74 111.95C140.58 114.51 140.18 115.66 138.74 115.66C135.98 115.66 135.74 111.5 135.69 104.8L130 104.8C130.1 105.11 130.22 105.47 130.29 105.84L134.96 105.84L134.96 108.52L132.95 108.52L132.95 107.5L125.12 107.5L125.12 108.52L123.26 108.52L123.26 105.84L127.94 105.84C127.9 105.6 127.84 105.33 127.77 105.13L129.48 104.8L122.7 104.8L122.7 103.1L123.08 103.1C122.66 102.68 122.12 102.21 121.75 101.95C123.5 100.8 125.12 98.9 126 96.95L128.34 97.66C128.22 97.88 128.12 98.12 127.97 98.34L139.78 98.34L139.78 100.02L126.93 100.02ZM146.44 101.48C145.78 102.35 145.1 103.18 144.36 103.85L157.32 103.85C157.26 109.29 157.46 113.32 158.61 113.32C158.92 113.32 159.01 112.21 159.03 110.51C159.5 111.1 160.07 111.7 160.56 112.04C160.4 114.6 159.94 115.69 158.44 115.69C155.45 115.69 155 111.48 154.92 105.64L144.14 105.64L144.14 104.05C143.9 104.27 143.68 104.47 143.44 104.65C143.12 104.18 142.28 103.18 141.78 102.72C143.64 101.44 145.32 99.32 146.24 97.08L148.56 97.77C148.41 98.1 148.26 98.43 148.08 98.78L159.8 98.78L159.8 100.55L147.06 100.55C146.89 100.82 146.71 101.08 146.53 101.33L158.12 101.33L158.12 103.05L146.44 103.05L146.44 101.48ZM138.81 100.71L138.81 102.37L126.44 102.37L126.44 100.71L138.81 100.71ZM150.02 110.86L150.02 112.15L151.11 111.22C152.3 111.86 153.94 112.88 154.76 113.58L153.19 114.96C152.52 114.32 151.16 113.38 150.02 112.68L150.02 115.69L147.77 115.69L147.77 112.24C146.6 113.58 145.12 114.76 143.64 115.49C143.32 114.96 142.66 114.14 142.18 113.74C143.7 113.14 145.29 112.04 146.46 110.86L142.84 110.86L142.84 109.05L145.14 109.05C144.94 108.39 144.43 107.44 143.92 106.77L145.72 106.06C146.28 106.77 146.86 107.72 147.04 108.38L145.38 109.05L147.77 109.05L147.77 106.04L150.02 106.04L150.02 109.05L151.7 109.05L150.62 108.63C151.08 107.94 151.67 106.88 152 106.13L154.1 106.77C153.44 107.59 152.77 108.43 152.26 109.05L154.65 109.05L154.65 110.86L150.02 110.86ZM135.38 109.03L135.38 110.71L133.26 110.71C132.95 111.5 132.55 112.15 132.06 112.72C133.5 113.21 134.76 113.72 135.76 114.2L134.43 115.78C133.37 115.22 131.95 114.62 130.38 114.05C128.75 114.98 126.49 115.46 123.46 115.75C123.32 115.18 122.97 114.38 122.7 113.96C124.85 113.85 126.56 113.65 127.9 113.23C126.73 112.88 125.54 112.54 124.32 112.26C124.63 111.82 124.98 111.3 125.32 110.71L122.68 110.71L122.68 109.03L126.22 109.03C126.48 108.54 126.7 108.03 126.88 107.56L128.98 107.99C128.83 108.34 128.68 108.67 128.52 109.03L135.38 109.03ZM131.09 110.71L127.66 110.71L127.33 111.3C128.26 111.53 129.17 111.77 130.05 112.06C130.47 111.7 130.82 111.24 131.09 110.71Z" fill="#FFFFFF" fill-opacity="1.000000" fill-rule="evenodd"/>
	<path id="svg_nh2value" d="M179.15 115.3L174.9 115.3L174.9 122.17L169.31 122.17L169.31 126.25L174.9 126.25L174.9 130.99L169.34 130.99L169.34 135.07L174.9 135.07L174.9 142.24L179.15 142.24L179.15 135.07L184 135.07L184 142.24L188.26 142.24L188.26 135.07L193.81 135.07L193.81 130.99L188.26 130.99L188.26 126.25L193.81 126.25L193.81 122.17L188.26 122.17L188.26 115.3L184 115.3L184 122.17L179.15 122.17L179.15 115.3ZM203.79 115.3L199.54 115.3L199.54 122.17L193.95 122.17L193.95 126.25L199.54 126.25L199.54 130.99L193.99 130.99L193.99 135.07L199.54 135.07L199.54 142.24L203.79 142.24L203.79 135.07L208.65 135.07L208.65 142.24L212.9 142.24L212.9 135.07L218.45 135.07L218.45 130.99L212.9 130.99L212.9 126.25L218.45 126.25L218.45 122.17L212.9 122.17L212.9 115.3L208.65 115.3L208.65 122.17L203.79 122.17L203.79 115.3ZM228.44 115.3L224.19 115.3L224.19 122.17L218.6 122.17L218.6 126.25L224.19 126.25L224.19 130.99L218.63 130.99L218.63 135.07L224.19 135.07L224.19 142.24L228.44 142.24L228.44 135.07L233.29 135.07L233.29 142.24L237.54 142.24L237.54 135.07L243.1 135.07L243.1 130.99L237.54 130.99L237.54 126.25L243.1 126.25L243.1 122.17L237.54 122.17L237.54 115.3L233.29 115.3L233.29 122.17L228.44 122.17L228.44 115.3ZM179.15 130.99L179.15 126.25L184 126.25L184 130.99L179.15 130.99ZM203.79 130.99L203.79 126.25L208.65 126.25L208.65 130.99L203.79 130.99ZM228.44 130.99L228.44 126.25L233.29 126.25L233.29 130.99L228.44 130.99Z" fill="#FFFFFF" fill-opacity="1.000000" fill-rule="evenodd"/>
	<g opacity="0.600000">
		<line id="line" x1="121.240700" y1="91.000015" x2="0.240692" y2="132.000000" stroke="#D4A574" stroke-opacity="1.000000" stroke-width="1.500000"/>
	</g>
</svg>
