<svg width="230.620941" height="145.420639" viewBox="0 0 230.621 145.421" fill="none" xmlns="http://www.w3.org/2000/svg" xmlns:xlink="http://www.w3.org/1999/xlink">
	<desc>
			Created with Pixso.
	</desc>
	<defs>
		<radialGradient gradientTransform="translate(105.621 46) rotate(0) scale(35 35)" cx="0.000000" cy="0.000000" r="1.000000" id="paint_radial_7_661_0" gradientUnits="userSpaceOnUse">
			<stop stop-color="#FFFFFF" stop-opacity="0.298039"/>
			<stop offset="1.000000" stop-color="#4A90B8" stop-opacity="0.000000"/>
		</radialGradient>
	</defs>
	<g opacity="0.800000">
		<circle id="circle" cx="105.620941" cy="46.000000" r="45.000000" fill="#000000" fill-opacity="0"/>
		<circle id="circle" cx="105.620941" cy="46.000000" r="45.000000" stroke="#4A90B8" stroke-opacity="1.000000" stroke-width="2.000000"/>
	</g>
	<circle id="circle" cx="105.620941" cy="46.000000" r="35.000000" fill="url(#paint_radial_7_661_0)" fill-opacity="1.000000"/>
	<g opacity="0.800000">
		<circle id="circle" cx="89.120941" cy="34.500000" r="7.500000" fill="#D4A574" fill-opacity="1.000000"/>
	</g>
	<g opacity="0.600000">
		<circle id="circle" cx="110.120941" cy="28.500000" r="5.500000" fill="#D4A574" fill-opacity="1.000000"/>
	</g>
	<g opacity="0.700000">
		<circle id="circle" cx="119.120941" cy="47.500000" r="9.500000" fill="#D4A574" fill-opacity="1.000000"/>
	</g>
	<g opacity="0.500000">
		<circle id="circle" cx="99.120941" cy="58.500000" r="6.500000" fill="#D4A574" fill-opacity="1.000000"/>
	</g>
	<path id="O₂" d="M118.3 56.62C118.3 61.31 115.72 64.25 112.04 64.25C108.36 64.25 105.78 61.31 105.78 56.62C105.78 51.91 108.36 49.05 112.04 49.05C115.72 49.05 118.3 51.91 118.3 56.62ZM107.68 56.62C107.68 60.27 109.4 62.63 112.04 62.63C114.66 62.63 116.4 60.27 116.4 56.62C116.4 52.94 114.66 50.67 112.04 50.67C109.4 50.67 107.68 52.94 107.68 56.62ZM127.02 66.5L120.45 66.5L120.45 65.39L123.77 62.43C124.77 61.55 125.28 61.01 125.28 60.27C125.28 59.42 124.54 58.88 123.58 58.88C122.55 58.88 121.87 59.48 121.87 60.36L120.39 60.36C120.39 58.74 121.73 57.66 123.6 57.66C125.48 57.66 126.76 58.77 126.76 60.25C126.76 61.41 126.08 62.2 124.52 63.57L122.66 65.19L122.66 65.25L127.02 65.25L127.02 66.5Z" fill="#FFFFFF" fill-opacity="1.000000" fill-rule="evenodd"/>
	<path id="溶氧量" d="M173.3 32.11L165.23 32.11L165.23 33.94L163.12 33.94L163.12 30.18L168.26 30.18C168.08 29.61 167.82 29.03 167.56 28.54L169.76 27.88C170.16 28.59 170.6 29.5 170.84 30.18L175.54 30.18L175.54 33.94L173.3 33.94L173.3 32.11ZM195.28 29.67L195.28 31.44L182.06 31.44C181.02 32.95 179.8 34.28 178.52 35.23C178.22 34.78 177.4 33.79 176.94 33.35C178.76 32.13 180.42 30.14 181.36 28.02L183.62 28.68C183.46 29.01 183.3 29.36 183.12 29.67L195.28 29.67ZM159.38 28.41C160.5 28.96 162.11 29.78 162.92 30.4L161.54 32.31C160.78 31.69 159.19 30.78 158.06 30.16L159.38 28.41ZM200.1 28.66L213.1 28.66L213.1 33.59L200.1 33.59L200.1 28.66ZM202.4 30.54L210.7 30.54L210.7 29.9L202.4 29.9L202.4 30.54ZM202.4 32.37L210.7 32.37L210.7 31.71L202.4 31.71L202.4 32.37ZM193.54 32.17L193.54 33.81L181.86 33.81L181.86 32.17L193.54 32.17ZM173.68 37.29C172.92 36.36 171.27 34.87 170.01 33.81L171.66 32.68C172.92 33.63 174.59 35.05 175.43 36L173.68 37.29ZM162.75 35.94C164.18 35.14 165.6 33.92 166.44 32.7L168.55 33.41C167.51 34.98 165.87 36.58 164.39 37.53C164.06 37.11 163.26 36.31 162.75 35.94ZM158.5 33.74C159.7 34.23 161.44 35.09 162.3 35.65L160.96 37.7C160.14 37.09 158.44 36.13 157.22 35.54L158.5 33.74ZM197.6 34.19L215.7 34.19L215.7 35.89L197.6 35.89L197.6 34.19ZM179.68 36.36L179.68 34.56L192.75 34.56C192.7 40.16 192.9 44.36 194.06 44.36C194.36 44.36 194.46 43.24 194.5 41.51C194.94 42.09 195.52 42.68 196 43.01C195.84 45.65 195.4 46.73 193.88 46.73C190.92 46.73 190.43 42.37 190.36 36.36L187.11 36.36L188.42 36.67C188.1 37.13 187.82 37.57 187.56 37.97L189.86 37.97L189.86 39.61L185.34 39.61L185.34 40.36L189.19 40.36L189.19 41.95L185.34 41.95L185.34 42.77L190.22 42.77L190.22 44.5L185.34 44.5L185.34 46.73L183 46.73L183 44.5L177.8 44.5L177.8 42.77L183 42.77L183 41.95L178.99 41.95L178.99 40.36L183 40.36L183 39.61L178.26 39.61L178.26 37.97L180.76 37.97C180.6 37.55 180.38 37.08 180.16 36.69L181.44 36.36L179.68 36.36ZM162.42 40.01C164.96 38.77 167.33 36.8 168.57 34.83L170.84 35.65C170.74 35.83 170.62 36 170.5 36.16C171.88 37.44 174.06 38.72 175.98 39.39C175.6 39.96 175.18 41.02 175.01 41.62C174.66 41.44 174.28 41.25 173.9 41.05L173.9 46.73L171.64 46.73L171.64 46.04L166.86 46.04L166.86 46.75L164.72 46.75L164.72 41.22C164.46 41.38 164.18 41.51 163.92 41.66C163.68 41.27 163.13 40.67 162.7 40.25C161.89 42.33 160.92 44.63 159.96 46.58L157.8 45.18C158.66 43.63 159.86 41.16 160.78 38.86L162.68 40.23C162.58 40.16 162.5 40.07 162.42 40.01ZM182.3 36.36C182.62 36.87 182.92 37.51 183.04 37.97L185.2 37.97C185.5 37.48 185.84 36.86 186.04 36.36L182.3 36.36ZM207.73 43.79L207.73 44.52L215.74 44.52L215.74 46.24L197.56 46.24L197.56 44.52L205.45 44.52L205.45 43.79L199.34 43.79L199.34 42.26L205.45 42.26L205.45 41.62L199.74 41.62L199.74 36.49L213.55 36.49L213.55 41.62L207.73 41.62L207.73 42.26L213.94 42.26L213.94 43.79L207.73 43.79ZM169.26 37.68C168.4 38.61 167.42 39.43 166.36 40.18L172.44 40.18C171.27 39.41 170.18 38.55 169.26 37.68ZM205.45 37.75L201.98 37.75L201.98 38.46L205.45 38.46L205.45 37.75ZM207.73 38.46L211.24 38.46L211.24 37.75L207.73 37.75L207.73 38.46ZM201.98 39.63L201.98 40.34L205.45 40.34L205.45 39.63L201.98 39.63ZM207.73 40.34L211.24 40.34L211.24 39.63L207.73 39.63L207.73 40.34ZM166.86 42.11L166.86 44.1L171.64 44.1L171.64 42.11L166.86 42.11Z" fill="#FFFFFF" fill-opacity="1.000000" fill-rule="evenodd"/>
	<path id="svg_o2value" d="M166.53 60.3L162.28 60.3L162.28 67.17L156.69 67.17L156.69 71.25L162.28 71.25L162.28 75.99L156.72 75.99L156.72 80.07L162.28 80.07L162.28 87.24L166.53 87.24L166.53 80.07L171.38 80.07L171.38 87.24L175.64 87.24L175.64 80.07L181.19 80.07L181.19 75.99L175.64 75.99L175.64 71.25L181.19 71.25L181.19 67.17L175.64 67.17L175.64 60.3L171.38 60.3L171.38 67.17L166.53 67.17L166.53 60.3ZM191.18 60.3L186.92 60.3L186.92 67.17L181.33 67.17L181.33 71.25L186.92 71.25L186.92 75.99L181.37 75.99L181.37 80.07L186.92 80.07L186.92 87.24L191.18 87.24L191.18 80.07L196.03 80.07L196.03 87.24L200.28 87.24L200.28 80.07L205.84 80.07L205.84 75.99L200.28 75.99L200.28 71.25L205.84 71.25L205.84 67.17L200.28 67.17L200.28 60.3L196.03 60.3L196.03 67.17L191.18 67.17L191.18 60.3ZM215.82 60.3L211.57 60.3L211.57 67.17L205.98 67.17L205.98 71.25L211.57 71.25L211.57 75.99L206.01 75.99L206.01 80.07L211.57 80.07L211.57 87.24L215.82 87.24L215.82 80.07L220.67 80.07L220.67 87.24L224.93 87.24L224.93 80.07L230.48 80.07L230.48 75.99L224.93 75.99L224.93 71.25L230.48 71.25L230.48 67.17L224.93 67.17L224.93 60.3L220.67 60.3L220.67 67.17L215.82 67.17L215.82 60.3ZM166.53 75.99L166.53 71.25L171.38 71.25L171.38 75.99L166.53 75.99ZM191.18 75.99L191.18 71.25L196.03 71.25L196.03 75.99L191.18 75.99ZM215.82 75.99L215.82 71.25L220.67 71.25L220.67 75.99L215.82 75.99Z" fill="#FFFFFF" fill-opacity="1.000000" fill-rule="evenodd"/>
	<g opacity="0.600000">
		<line id="line" x1="63.620941" y1="52.000000" x2="0.620941" y2="145.000000" stroke="#D4A574" stroke-opacity="1.000000" stroke-width="1.500000"/>
	</g>
</svg>
