<svg width="190.493103" height="160.565109" viewBox="0 0 190.493 160.565" fill="none" xmlns="http://www.w3.org/2000/svg" xmlns:xlink="http://www.w3.org/1999/xlink">
	<desc>
			Created with Pixso.
	</desc>
	<defs>
		<radialGradient gradientTransform="translate(54 46) rotate(0) scale(35 35)" cx="0.000000" cy="0.000000" r="1.000000" id="paint_radial_2_39_0" gradientUnits="userSpaceOnUse">
			<stop stop-color="#FFFFFF" stop-opacity="0.298039"/>
			<stop offset="1.000000" stop-color="#4A90B8" stop-opacity="0.000000"/>
		</radialGradient>
	</defs>
	<g opacity="0.800000">
		<circle id="circle" cx="54.000000" cy="46.000000" r="45.000000" fill="#000000" fill-opacity="0"/>
		<circle id="circle" cx="54.000000" cy="46.000000" r="45.000000" stroke="#4A90B8" stroke-opacity="1.000000" stroke-width="2.000000"/>
	</g>
	<circle id="circle" cx="54.000000" cy="46.000000" r="35.000000" fill="url(#paint_radial_2_39_0)" fill-opacity="1.000000"/>
	<path id="pH" d="M51.26 44L49.4 44L49.4 29.32L51.26 29.32L51.26 35.47L58.09 35.47L58.09 29.32L59.93 29.32L59.93 44L58.09 44L58.09 37.08L51.26 37.08L51.26 44ZM38.66 48.58L36.84 48.58L36.84 33.14L38.33 33.14L38.5 34.38L38.55 34.38C39.54 33.58 40.76 32.86 42.02 32.86C44.81 32.86 46.33 35.05 46.33 38.39C46.33 42.12 44.12 44.25 41.62 44.25C40.63 44.25 39.59 43.79 38.61 42.99L38.66 44.89L38.66 48.58ZM38.66 41.59C39.63 42.44 40.6 42.74 41.31 42.74C43.12 42.74 44.43 41.11 44.43 38.41C44.43 36.02 43.63 34.4 41.58 34.4C40.65 34.4 39.72 34.91 38.66 35.89L38.66 41.59Z" fill="#D4A574" fill-opacity="1.000000" fill-rule="evenodd"/>
	<circle id="circle" cx="62.000000" cy="58.000000" r="12.000000" fill="#000000" fill-opacity="0"/>
	<circle id="circle" cx="62.000000" cy="58.000000" r="12.000000" stroke="#D4A574" stroke-opacity="1.000000" stroke-width="2.000000"/>
	<path id="7" d="M62.27 66L60.56 66C60.77 60.99 61.69 57.8 64.27 54.2L57.88 54.2L57.88 52.79L66.14 52.79L66.14 53.79C63.04 57.75 62.47 60.83 62.27 66Z" fill="#D4A574" fill-opacity="1.000000" fill-rule="evenodd"/>
	<path id="pH值" d="M48.1 112.28L48.1 123.36L49.62 123.36L49.62 125.36L36.16 125.36L36.16 123.36L37.88 123.36L37.88 112.28L41.34 112.28C41.42 111.86 41.5 111.4 41.58 110.91L37.04 110.91L37.04 108.87L41.86 108.87C41.92 108.23 41.98 107.66 42.02 107.1L44.54 107.17C44.46 107.74 44.34 108.3 44.24 108.87L49.16 108.87L49.16 110.91L43.82 110.91C43.7 111.42 43.6 111.86 43.48 112.28L48.1 112.28ZM30.78 114.6C32.5 112.77 34.14 109.96 35.1 107.12L37.26 107.83C36.74 109.29 36.06 110.78 35.32 112.19L35.32 125.71L33.12 125.71L33.12 115.73C32.76 116.22 32.4 116.66 32.04 117.08C31.82 116.5 31.18 115.2 30.78 114.6ZM28.27 110.12L25.81 110.12L25.81 115.7L18.38 115.7L18.38 110.12L15.92 110.12L15.92 124L18.38 124L18.38 117.97L25.81 117.97L25.81 124L28.27 124L28.27 110.12ZM45.9 115.11L45.9 114.02L39.98 114.02L39.98 115.11L45.9 115.11ZM8.24 114.31Q7.55 114.16 6.82 114.16Q6.36 114.16 5.91 114.22Q4.81 114.35 3.75 114.81L3.53 114.35L1.75 114.35L1.75 129.18L4.25 129.18L4.25 123.86Q4.8 124.03 5.37 124.11Q5.92 124.19 6.49 124.19Q8.6 124.19 9.96 123.18Q10.18 123.02 10.39 122.83Q10.7 122.53 10.95 122.19Q11.83 120.95 11.83 119.07Q11.83 117.98 11.53 117.12Q11.23 116.25 10.74 115.71Q10.63 115.59 10.51 115.47Q10.1 115.09 9.58 114.81Q8.92 114.45 8.24 114.31ZM4.25 116.63Q5.22 116.29 6.19 116.29Q6.63 116.29 7.04 116.35Q7.45 116.42 7.91 116.62Q8.36 116.83 8.7 117.14Q9.03 117.46 9.25 118.02Q9.47 118.59 9.47 119.32Q9.47 119.98 9.25 120.49Q9.04 121.01 8.71 121.31Q8.37 121.61 7.92 121.8Q7.48 121.99 7.07 122.06Q6.66 122.13 6.22 122.13Q5.27 122.13 4.25 121.84L4.25 116.63ZM39.98 117.86L45.9 117.86L45.9 116.75L39.98 116.75L39.98 117.86ZM45.9 120.6L45.9 119.45L39.98 119.45L39.98 120.6L45.9 120.6ZM45.9 122.24L39.98 122.24L39.98 123.36L45.9 123.36L45.9 122.24Z" fill="#FFFFFF" fill-opacity="1.000000" fill-rule="evenodd"/>
	<path id="svg_phvalue" d="M65.91 109.3L61.66 109.3L61.66 116.17L56.07 116.17L56.07 120.25L61.66 120.25L61.66 124.99L56.1 124.99L56.1 129.07L61.66 129.07L61.66 136.24L65.91 136.24L65.91 129.07L70.76 129.07L70.76 136.24L75.01 136.24L75.01 129.07L80.57 129.07L80.57 124.99L75.01 124.99L75.01 120.25L80.57 120.25L80.57 116.17L75.01 116.17L75.01 109.3L70.76 109.3L70.76 116.17L65.91 116.17L65.91 109.3ZM90.55 109.3L86.3 109.3L86.3 116.17L80.71 116.17L80.71 120.25L86.3 120.25L86.3 124.99L80.75 124.99L80.75 129.07L86.3 129.07L86.3 136.24L90.55 136.24L90.55 129.07L95.41 129.07L95.41 136.24L99.66 136.24L99.66 129.07L105.21 129.07L105.21 124.99L99.66 124.99L99.66 120.25L105.21 120.25L105.21 116.17L99.66 116.17L99.66 109.3L95.41 109.3L95.41 116.17L90.55 116.17L90.55 109.3ZM115.2 109.3L110.94 109.3L110.94 116.17L105.35 116.17L105.35 120.25L110.94 120.25L110.94 124.99L105.39 124.99L105.39 129.07L110.94 129.07L110.94 136.24L115.2 136.24L115.2 129.07L120.05 129.07L120.05 136.24L124.3 136.24L124.3 129.07L129.86 129.07L129.86 124.99L124.3 124.99L124.3 120.25L129.86 120.25L129.86 116.17L124.3 116.17L124.3 109.3L120.05 109.3L120.05 116.17L115.2 116.17L115.2 109.3ZM65.91 124.99L65.91 120.25L70.76 120.25L70.76 124.99L65.91 124.99ZM90.55 124.99L90.55 120.25L95.41 120.25L95.41 124.99L90.55 124.99ZM115.2 124.99L115.2 120.25L120.05 120.25L120.05 124.99L115.2 124.99Z" fill="#FFFFFF" fill-opacity="1.000000" fill-rule="evenodd"/>
	<g opacity="0.600000">
		<line id="line" x1="88.000000" y1="71.000000" x2="190.000000" y2="160.000000" stroke="#D4A574" stroke-opacity="1.000000" stroke-width="1.500000"/>
	</g>
</svg>
