<svg width="245.332092" height="144.000000" viewBox="0 0 245.332 144" fill="none" xmlns="http://www.w3.org/2000/svg" xmlns:xlink="http://www.w3.org/1999/xlink">
	<desc>
			Created with Pixso.
	</desc>
	<defs>
		<radialGradient gradientTransform="translate(121.332 46) rotate(0) scale(35 35)" cx="0.000000" cy="0.000000" r="1.000000" id="paint_radial_2_13_0" gradientUnits="userSpaceOnUse">
			<stop stop-color="#FFFFFF" stop-opacity="0.298039"/>
			<stop offset="1.000000" stop-color="#4A90B8" stop-opacity="0.000000"/>
		</radialGradient>
	</defs>
	<g opacity="0.800000">
		<circle id="circle" cx="121.332085" cy="46.000000" r="45.000000" fill="#000000" fill-opacity="0"/>
		<circle id="circle" cx="121.332085" cy="46.000000" r="45.000000" stroke="#4A90B8" stroke-opacity="1.000000" stroke-width="2.000000"/>
	</g>
	<circle id="circle" cx="121.332085" cy="45.999969" r="35.000000" fill="url(#paint_radial_2_13_0)" fill-opacity="1.000000"/>
	<rect id="rect" x="120.959496" y="23.999969" width="31.999996" height="31.999996" transform="rotate(45 120.959496 23.999969)" fill="#000000" fill-opacity="0"/>
	<rect id="rect" x="120.959496" y="23.999969" width="31.999996" height="31.999996" transform="rotate(45 120.959496 23.999969)" stroke="#D4A574" stroke-opacity="1.000000" stroke-width="1.500000"/>
	<path id="path" d="" fill="#000000" fill-opacity="0" fill-rule="nonzero"/>
	<path id="path" d="M108.95 34.62L132.95 58.62M132.95 34.62L108.95 58.62" stroke="#D4A574" stroke-opacity="1.000000" stroke-width="1.500000"/>
	<ellipse id="circle" cx="120.959526" cy="46.627411" rx="5.999999" ry="6.000001" fill="#D4A574" fill-opacity="1.000000"/>
	<ellipse id="circle" cx="120.959526" cy="46.627411" rx="5.999999" ry="6.000001" stroke="#D4A574" stroke-opacity="1.000000" stroke-width="1.500000"/>
	<path id="鹽度" d="M160.37 101L145.97 101L145.97 104.07C145.97 107.44 145.71 112.44 144.05 115.69C143.57 115.36 142.49 114.85 141.87 114.67C143.47 111.59 143.61 107.14 143.61 104.09L143.61 98.78L151.07 98.78C150.93 98.32 150.77 97.83 150.59 97.46L153.01 96.91C153.28 97.48 153.57 98.16 153.77 98.78L160.37 98.78L160.37 101ZM139.95 108.48L130.93 108.48L130.93 102.37C130.57 102.08 130.14 101.79 129.85 101.66C131.13 100.27 131.89 98.5 132.33 97.06L134.37 97.35C134.25 97.7 134.13 98.05 133.99 98.41L140.65 98.41L140.65 99.91L136.37 99.91L136.37 100.47L139.63 100.47L139.63 101.68L136.37 101.68L136.37 102.19L139.95 102.19L139.95 108.48ZM130.19 108.48L123.67 108.45L122.87 108.45L122.87 97.7L130.11 97.7L130.11 99.49L127.69 99.49L127.69 100.8L129.69 100.8L129.69 105.2L127.69 105.2L127.69 106.68L130.19 106.68L130.19 108.48ZM126.13 100.8L126.13 99.49L124.63 99.49L124.63 100.8L126.13 100.8ZM134.35 102.19L134.35 99.91L133.35 99.91C132.95 100.71 132.51 101.46 131.95 102.19L134.35 102.19ZM157.31 104.64L157.31 107.76L149.07 107.76L149.07 104.64L146.37 104.64L146.37 102.77L149.07 102.77L149.07 101.46L151.31 101.46L151.31 102.77L154.95 102.77L154.95 101.46L157.31 101.46L157.31 102.77L160.19 102.77L160.19 104.64L157.31 104.64ZM124.63 103.61L127.97 103.61L127.97 102.39L124.63 102.39L124.63 103.61ZM137.41 104.56C137.64 104.67 137.95 104.82 138.17 105L138.17 103.38L135.23 103.38C135.47 103.52 135.73 103.65 135.87 103.8L135.33 104.42C135.07 104.2 134.67 103.92 134.29 103.74L134.67 103.38L132.61 103.38L132.61 105.31L133.05 104.91C133.39 105.06 133.83 105.31 134.07 105.49L133.5 106.11C133.31 105.91 132.95 105.68 132.61 105.47L132.61 107.3L133.83 107.3C133.63 107.12 133.33 106.86 133.11 106.72C133.67 106.33 134.25 105.88 134.77 105.38C134.19 105.06 133.57 104.69 133.03 104.42L133.65 103.81C134.21 104.07 134.83 104.42 135.39 104.76C135.78 104.32 136.15 103.85 136.42 103.39L137.45 103.67C137.11 104.22 136.71 104.76 136.25 105.26C136.83 105.62 137.35 105.98 137.71 106.3L137.05 106.99C136.69 106.68 136.19 106.3 135.61 105.91C135.11 106.44 134.59 106.92 134.07 107.3L135.65 107.3C135.43 107.12 135.21 106.93 134.99 106.79L135.57 106.33C135.91 106.52 136.33 106.79 136.55 107.01L136.25 107.3L138.17 107.3L138.17 105.46L137.85 105.75C137.61 105.51 137.19 105.26 136.83 105.06L137.41 104.56ZM154.95 105.95L154.95 104.64L151.31 104.64L151.31 105.95L154.95 105.95ZM124.63 106.68L126.13 106.68L126.13 105.2L124.63 105.2L124.63 106.68ZM157.29 108.56L157.71 108.48L159.19 109.23C158.35 110.8 157.15 111.99 155.67 112.94C157.19 113.3 158.87 113.52 160.69 113.65C160.23 114.16 159.63 115.11 159.33 115.71C156.89 115.47 154.73 115.02 152.85 114.25C150.95 114.94 148.79 115.36 146.53 115.6C146.35 115.04 145.91 114.14 145.55 113.61C147.21 113.48 148.81 113.28 150.27 112.92C149.35 112.3 148.53 111.55 147.85 110.73L148.65 110.42L146.53 110.42L146.53 108.56L157.29 108.56ZM138.67 109.27L138.67 113.32L140.69 113.32L140.69 115.16L122.01 115.16L122.01 113.32L124.27 113.32L124.27 109.27L138.67 109.27ZM152.97 112.04C153.99 111.59 154.87 111.08 155.61 110.42L150.33 110.42C151.03 111.06 151.93 111.59 152.97 112.04ZM128.31 111.08L126.49 111.08L126.49 113.32L128.31 113.32L128.31 111.08ZM132.31 113.32L132.31 111.08L130.49 111.08L130.49 113.32L132.31 113.32ZM136.33 113.32L136.33 111.08L134.49 111.08L134.49 113.32L136.33 113.32Z" fill="#FFFFFF" fill-opacity="1.000000" fill-rule="evenodd"/>
	<path id="svg_saltvalue" d="M181.24 106.3L176.99 106.3L176.99 113.17L171.4 113.17L171.4 117.25L176.99 117.25L176.99 121.99L171.43 121.99L171.43 126.07L176.99 126.07L176.99 133.24L181.24 133.24L181.24 126.07L186.09 126.07L186.09 133.24L190.35 133.24L190.35 126.07L195.9 126.07L195.9 121.99L190.35 121.99L190.35 117.25L195.9 117.25L195.9 113.17L190.35 113.17L190.35 106.3L186.09 106.3L186.09 113.17L181.24 113.17L181.24 106.3ZM205.89 106.3L201.63 106.3L201.63 113.17L196.04 113.17L196.04 117.25L201.63 117.25L201.63 121.99L196.08 121.99L196.08 126.07L201.63 126.07L201.63 133.24L205.89 133.24L205.89 126.07L210.74 126.07L210.74 133.24L214.99 133.24L214.99 126.07L220.55 126.07L220.55 121.99L214.99 121.99L214.99 117.25L220.55 117.25L220.55 113.17L214.99 113.17L214.99 106.3L210.74 106.3L210.74 113.17L205.89 113.17L205.89 106.3ZM230.53 106.3L226.28 106.3L226.28 113.17L220.69 113.17L220.69 117.25L226.28 117.25L226.28 121.99L220.72 121.99L220.72 126.07L226.28 126.07L226.28 133.24L230.53 133.24L230.53 126.07L235.38 126.07L235.38 133.24L239.64 133.24L239.64 126.07L245.19 126.07L245.19 121.99L239.64 121.99L239.64 117.25L245.19 117.25L245.19 113.17L239.64 113.17L239.64 106.3L235.38 106.3L235.38 113.17L230.53 113.17L230.53 106.3ZM181.24 121.99L181.24 117.25L186.09 117.25L186.09 121.99L181.24 121.99ZM205.89 121.99L205.89 117.25L210.74 117.25L210.74 121.99L205.89 121.99ZM230.53 121.99L230.53 117.25L235.38 117.25L235.38 121.99L230.53 121.99Z" fill="#FFFFFF" fill-opacity="1.000000" fill-rule="evenodd"/>
	<g opacity="0.600000">
		<line id="line" x1="81.332085" y1="50.999996" x2="0.332085" y2="91.000000" stroke="#D4A574" stroke-opacity="1.000000" stroke-width="1.500000"/>
	</g>
</svg>
