<svg width="177.715851" height="197.223724" viewBox="0 0 177.716 197.224" fill="none" xmlns="http://www.w3.org/2000/svg" xmlns:xlink="http://www.w3.org/1999/xlink">
	<desc>
			Created with Pixso.
	</desc>
	<defs>
		<radialGradient gradientTransform="translate(49.7159 46) rotate(0) scale(35 35)" cx="0.000000" cy="0.000000" r="1.000000" id="paint_radial_2_3_0" gradientUnits="userSpaceOnUse">
			<stop stop-color="#FFFFFF" stop-opacity="0.298039"/>
			<stop offset="1.000000" stop-color="#4A90B8" stop-opacity="0.000000"/>
		</radialGradient>
	</defs>
	<g opacity="0.800000">
		<circle id="circle" cx="49.715874" cy="46.000000" r="45.000000" fill="#000000" fill-opacity="0"/>
		<circle id="circle" cx="49.715874" cy="46.000000" r="45.000000" stroke="#4A90B8" stroke-opacity="1.000000" stroke-width="2.000000"/>
	</g>
	<circle id="circle" cx="49.715874" cy="46.000000" r="35.000000" fill="url(#paint_radial_2_3_0)" fill-opacity="1.000000"/>
	<rect id="rect" x="44.715874" y="21.000000" rx="3.000000" width="10.000000" height="36.764706" fill="#000000" fill-opacity="0"/>
	<rect id="rect" x="44.715874" y="21.000000" rx="3.000000" width="10.000000" height="36.764706" stroke="#D4A574" stroke-opacity="1.000000" stroke-width="2.000000"/>
	<ellipse id="circle" cx="49.715874" cy="62.176483" rx="10.000000" ry="8.823528" fill="#D4A574" fill-opacity="1.000000"/>
	<ellipse id="circle" cx="49.715874" cy="62.176483" rx="10.000000" ry="8.823528" stroke="#D4A574" stroke-opacity="1.000000" stroke-width="2.000000"/>
	<path id="path" d="" fill="#000000" fill-opacity="0" fill-rule="nonzero"/>
	<path id="path" d="M49.71 28.35L49.71 50.41" stroke="#D4A574" stroke-opacity="1.000000" stroke-width="2.000000"/>
	<path id="溫度" d="M88.75 105L74.35 105L74.35 108.07C74.35 111.44 74.09 116.44 72.43 119.69C71.95 119.36 70.87 118.85 70.25 118.67C71.85 115.59 71.99 111.14 71.99 108.09L71.99 102.78L79.45 102.78C79.31 102.32 79.15 101.83 78.97 101.46L81.39 100.92C81.67 101.48 81.95 102.16 82.15 102.78L88.75 102.78L88.75 105ZM52.69 101.12C53.85 101.59 55.39 102.39 56.15 103.05L54.77 105.02C54.05 104.33 52.55 103.43 51.35 102.92L52.69 101.12ZM57.27 101.92L67.11 101.92L67.11 110.04L57.27 110.04L57.27 101.92ZM59.41 108.25L64.85 108.25L64.85 103.67L59.41 103.67L59.41 106.99C60.65 106.34 61.31 105.08 61.49 103.82L63.07 104C62.99 104.42 62.85 104.84 62.69 105.24C63.41 105.84 64.27 106.57 64.71 107.03L63.63 108.05C63.27 107.63 62.67 107.03 62.07 106.48C61.63 107.14 61.07 107.7 60.37 108.07C60.17 107.78 59.73 107.28 59.41 107.03L59.41 108.25ZM85.69 108.64L85.69 111.76L77.45 111.76L77.45 108.64L74.75 108.64L74.75 106.77L77.45 106.77L77.45 105.46L79.69 105.46L79.69 106.77L83.33 106.77L83.33 105.46L85.69 105.46L85.69 106.77L88.57 106.77L88.57 108.64L85.69 108.64ZM51.61 106.5C52.79 106.92 54.31 107.67 55.07 108.32L53.69 110.3C52.99 109.64 51.51 108.8 50.33 108.27L51.61 106.5ZM83.33 109.95L83.33 108.64L79.69 108.64L79.69 109.95L83.33 109.95ZM67.87 111.06L67.87 117.08L69.09 117.08L69.09 119.13L54.93 119.13L54.93 117.08L56.59 117.08L56.59 111.06L67.87 111.06ZM50.67 118.09C51.59 116.56 52.87 114.04 53.89 111.7L55.75 113.12C54.87 115.26 53.81 117.56 52.79 119.49L50.67 118.09ZM85.67 112.56L86.09 112.48L87.57 113.23C86.73 114.8 85.53 115.99 84.05 116.94C85.57 117.3 87.25 117.52 89.07 117.65C88.61 118.16 88.01 119.11 87.71 119.71C85.27 119.47 83.11 119.02 81.23 118.25C79.33 118.94 77.17 119.36 74.91 119.6C74.73 119.04 74.29 118.14 73.93 117.61C75.59 117.48 77.19 117.28 78.65 116.92C77.73 116.3 76.91 115.55 76.23 114.73L77.03 114.42L74.91 114.42L74.91 112.56L85.67 112.56ZM59.83 113.05L58.71 113.05L58.71 117.08L59.83 117.08L59.83 113.05ZM62.71 117.08L62.71 113.05L61.59 113.05L61.59 117.08L62.71 117.08ZM65.63 117.08L65.63 113.05L64.49 113.05L64.49 117.08L65.63 117.08ZM81.35 116.04C82.37 115.59 83.25 115.08 83.99 114.42L78.71 114.42C79.41 115.06 80.31 115.59 81.35 116.04Z" fill="#FFFFFF" fill-opacity="1.000000" fill-rule="evenodd"/>
	<path id="svg_tempvalue" d="M113.63 87.3L109.37 87.3L109.37 94.17L103.78 94.17L103.78 98.25L109.37 98.25L109.37 102.99L103.82 102.99L103.82 107.07L109.37 107.07L109.37 114.24L113.63 114.24L113.63 107.07L118.48 107.07L118.48 114.24L122.73 114.24L122.73 107.07L128.28 107.07L128.28 102.99L122.73 102.99L122.73 98.25L128.28 98.25L128.28 94.17L122.73 94.17L122.73 87.3L118.48 87.3L118.48 94.17L113.63 94.17L113.63 87.3ZM138.27 87.3L134.02 87.3L134.02 94.17L128.43 94.17L128.43 98.25L134.02 98.25L134.02 102.99L128.46 102.99L128.46 107.07L134.02 107.07L134.02 114.24L138.27 114.24L138.27 107.07L143.12 107.07L143.12 114.24L147.38 114.24L147.38 107.07L152.93 107.07L152.93 102.99L147.38 102.99L147.38 98.25L152.93 98.25L152.93 94.17L147.38 94.17L147.38 87.3L143.12 87.3L143.12 94.17L138.27 94.17L138.27 87.3ZM162.91 87.3L158.66 87.3L158.66 94.17L153.07 94.17L153.07 98.25L158.66 98.25L158.66 102.99L153.11 102.99L153.11 107.07L158.66 107.07L158.66 114.24L162.91 114.24L162.91 107.07L167.77 107.07L167.77 114.24L172.02 114.24L172.02 107.07L177.57 107.07L177.57 102.99L172.02 102.99L172.02 98.25L177.57 98.25L177.57 94.17L172.02 94.17L172.02 87.3L167.77 87.3L167.77 94.17L162.91 94.17L162.91 87.3ZM113.63 102.99L113.63 98.25L118.48 98.25L118.48 102.99L113.63 102.99ZM138.27 102.99L138.27 98.25L143.12 98.25L143.12 102.99L138.27 102.99ZM162.91 102.99L162.91 98.25L167.77 98.25L167.77 102.99L162.91 102.99Z" fill="#FFFFFF" fill-opacity="1.000000" fill-rule="evenodd"/>
	<g opacity="0.600000">
		<line id="line" x1="35.715858" y1="85.000000" x2="0.715858" y2="197.000000" stroke="#D4A574" stroke-opacity="1.000000" stroke-width="1.500000"/>
	</g>
</svg>
